<?xml version="1.0" standalone="no"?>
<!DOCTYPE svg PUBLIC "-//W3C//DTD SVG 20010904//EN"
 "http://www.w3.org/TR/2001/REC-SVG-20010904/DTD/svg10.dtd">
<svg version="1.0" xmlns="http://www.w3.org/2000/svg"
 width="619.000000pt" height="619.000000pt" viewBox="0 0 619.000000 619.000000"
 preserveAspectRatio="xMidYMid meet">
<metadata>
Created by potrace 1.11, written by Peter Selinger 2001-2013
</metadata>
<g transform="translate(0.000000,619.000000) scale(0.100000,-0.100000)"
fill="#000000" stroke="none">
<path d="M2835 5749 c-120 -11 -322 -55 -440 -94 -791 -265 -1337 -906 -1482
-1740 -27 -157 -25 -540 5 -702 85 -466 289 -861 615 -1184 659 -656 1646
-822 2485 -418 661 318 1106 924 1218 1659 23 154 23 442 0 604 -79 549 -353
1036 -786 1398 -257 214 -612 379 -960 447 -205 40 -443 51 -655 30z m544 -55
c808 -116 1485 -695 1735 -1483 113 -359 126 -786 35 -1146 -80 -314 -233
-615 -434 -854 -68 -82 -230 -242 -310 -308 -246 -200 -605 -364 -943 -430
-158 -30 -430 -41 -607 -24 -729 71 -1382 529 -1705 1196 -101 207 -162 409
-201 660 -19 121 -16 437 5 575 61 395 225 766 471 1059 424 508 1058 796
1705 774 80 -2 192 -11 249 -19z"/>
<path d="M2004 5066 c-127 -56 -165 -335 -93 -692 l21 -102 -72 -83 c-135
-156 -247 -347 -303 -517 -14 -40 -27 -75 -30 -78 -3 -4 -69 -1 -147 6 -94 8
-145 9 -152 2 -17 -17 9 -23 153 -36 76 -7 141 -15 143 -17 2 -2 1 -24 -3 -49
l-6 -45 -250 -33 c-137 -19 -254 -38 -260 -43 -27 -26 25 -25 253 3 134 16
245 28 246 26 2 -2 6 -26 9 -54 l6 -50 -132 -43 c-138 -45 -175 -65 -144 -77
10 -3 74 14 148 40 129 45 149 48 149 21 0 -7 21 -54 46 -105 38 -75 63 -109
138 -184 50 -51 118 -111 151 -133 279 -186 641 -294 1085 -324 343 -24 641
29 920 162 125 60 179 93 285 175 217 167 354 377 390 598 l6 38 201 -3 c147
-3 202 -1 205 8 6 18 -19 21 -219 28 l-186 7 -4 44 c-2 25 1 44 7 44 5 0 136
20 290 43 233 36 281 46 283 60 4 22 14 23 -308 -27 -151 -24 -278 -40 -281
-37 -4 3 -9 22 -13 41 l-6 35 93 34 c208 76 247 93 247 107 0 22 -19 18 -185
-46 -86 -33 -158 -60 -159 -60 -2 0 -16 35 -31 78 -57 162 -151 319 -271 457
l-65 74 16 105 c17 118 20 327 5 407 -26 141 -102 216 -205 205 -106 -12 -247
-106 -408 -275 l-89 -92 -126 17 c-182 24 -451 15 -620 -20 l-124 -27 -41 48
c-76 91 -216 221 -286 268 -117 77 -209 101 -277 71z m175 -51 c30 -14 85 -48
122 -76 77 -57 262 -246 256 -262 -2 -6 -39 -25 -83 -42 -164 -64 -319 -159
-456 -277 -65 -56 -59 -62 -85 82 -11 62 -17 150 -17 250 -1 188 15 253 74
312 33 34 43 38 86 38 31 0 69 -9 103 -25z m1875 6 c66 -41 96 -142 96 -328 0
-108 -13 -254 -25 -291 -3 -9 -23 1 -62 31 -127 99 -344 208 -463 232 -44 9
-70 23 -70 36 0 17 128 146 209 211 143 114 247 151 315 109z m-614 -356 c298
-62 495 -163 691 -352 148 -143 254 -304 319 -482 17 -45 30 -85 30 -90 0 -5
-36 -23 -80 -41 -44 -18 -80 -36 -80 -41 0 -22 34 -19 100 7 38 15 72 25 74
23 2 -2 6 -18 9 -35 l6 -32 -72 -13 c-51 -10 -72 -18 -72 -29 0 -17 21 -18
103 -6 l52 8 0 -36 0 -36 -63 0 c-69 0 -83 -6 -66 -27 7 -8 33 -13 71 -13 l60
0 -7 -47 c-40 -266 -289 -549 -638 -725 -332 -166 -725 -213 -1182 -142 -527
83 -941 312 -1080 599 -60 123 -63 115 61 155 98 32 127 50 110 68 -4 4 -55
-10 -113 -31 -58 -20 -108 -35 -111 -33 -2 3 -7 25 -9 50 l-5 44 68 7 c142 15
159 19 162 39 4 17 -1 18 -49 13 -30 -4 -85 -9 -123 -13 l-69 -7 8 39 c4 21 8
41 10 45 2 3 34 2 72 -2 112 -13 163 -11 163 5 0 19 -17 23 -132 32 -54 3 -98
10 -98 15 0 27 77 215 120 292 232 420 629 711 1087 796 151 28 166 29 368 25
145 -2 204 -8 305 -29z"/>
<path d="M2672 3944 c-56 -23 -80 -111 -47 -173 25 -50 70 -55 117 -12 30 27
33 34 33 89 0 88 -38 124 -103 96z"/>
<path d="M3402 3927 c-33 -35 -37 -77 -14 -129 25 -57 70 -80 111 -57 36 21
53 57 48 107 -9 86 -94 133 -145 79z"/>
<path d="M2960 3656 c-66 -19 -103 -41 -139 -81 -25 -29 -31 -44 -31 -81 0
-41 5 -51 53 -101 59 -63 152 -128 206 -143 32 -9 44 -6 106 24 88 44 167 113
195 171 19 38 20 50 10 79 -27 84 -126 137 -264 142 -55 2 -109 -2 -136 -10z
m267 -51 c69 -31 103 -68 103 -112 0 -29 -10 -44 -57 -92 -64 -63 -157 -121
-194 -121 -31 0 -89 31 -158 83 -160 122 -124 215 104 271 41 10 151 -6 202
-29z"/>
<path d="M3085 2880 c-47 -18 -57 -62 -18 -72 56 -14 126 41 87 69 -20 15 -39
16 -69 3z"/>
<path d="M4710 1701 c0 -6 -7 -11 -15 -11 -8 0 -15 -4 -15 -10 0 -5 7 -10 15
-10 8 0 15 -5 15 -11 0 -6 7 -3 16 5 14 15 14 17 0 32 -9 8 -16 11 -16 5z"/>
<path d="M4520 1580 c0 -5 5 -10 10 -10 6 0 10 5 10 10 0 6 -4 10 -10 10 -5 0
-10 -4 -10 -10z"/>
<path d="M4971 1533 c-10 -11 -9 -16 3 -29 9 -8 16 -11 16 -5 0 5 7 11 15 13
14 3 13 5 -3 19 -15 13 -20 13 -31 2z"/>
<path d="M4609 1419 c-15 -15 -15 -17 0 -26 12 -7 20 -6 29 3 7 8 8 14 3 14
-5 0 -11 6 -13 13 -2 9 -7 8 -19 -4z"/>
<path d="M4756 1302 c-24 -23 26 -101 58 -89 27 10 51 57 39 76 -10 16 -84 26
-97 13z m62 -15 c29 7 29 -20 0 -49 l-21 -21 -19 23 c-19 23 -23 42 -11 53 3
4 11 3 18 -3 6 -5 21 -7 33 -3z"/>
<path d="M4561 1155 c-117 -37 -122 -135 -8 -183 70 -30 143 7 182 93 11 26
11 34 -3 58 -10 16 -30 31 -52 37 -45 13 -65 12 -119 -5z m136 -30 c29 -21 34
-49 12 -84 -19 -32 -73 -71 -98 -71 -27 0 -102 42 -117 65 -12 19 -13 28 -4
45 26 49 160 78 207 45z"/>
<path d="M4640 1084 c-15 -38 -12 -54 10 -54 23 0 55 44 46 65 -9 25 -45 18
-56 -11z m40 -8 c0 -16 -24 -38 -33 -30 -8 9 11 44 23 44 6 0 10 -6 10 -14z"/>
<path d="M4512 1058 c4 -29 52 -58 69 -41 18 18 -15 63 -47 63 -21 0 -25 -4
-22 -22z m46 0 c16 -16 15 -28 -2 -28 -17 0 -38 24 -29 33 9 10 17 9 31 -5z"/>
<path d="M4901 1152 c-19 -9 -39 -24 -44 -33 -16 -26 2 -70 47 -116 48 -48 80
-54 140 -29 51 21 76 51 76 89 0 43 -32 73 -95 93 -62 18 -83 18 -124 -4z
m142 -26 c83 -35 86 -92 7 -132 -65 -34 -86 -31 -137 21 -39 38 -44 49 -39 72
4 16 14 34 23 41 22 16 106 15 146 -2z"/>
<path d="M4895 1100 c-12 -20 25 -70 53 -70 16 0 16 52 0 68 -14 14 -45 16
-53 2z m55 -41 c0 -10 -2 -19 -4 -19 -11 0 -36 33 -31 40 9 15 35 -1 35 -21z"/>
<path d="M5032 1067 c-30 -32 -28 -47 7 -47 36 0 59 25 45 48 -16 25 -28 24
-52 -1z m40 -12 c0 -14 -29 -31 -38 -22 -9 8 16 39 28 35 5 -2 10 -8 10 -13z"/>
<path d="M1093 634 c-23 -154 -40 -280 -40 -281 1 0 91 -14 200 -30 180 -27
197 -28 197 -12 0 9 3 30 6 46 l6 29 -135 18 c-74 10 -139 21 -145 25 -8 5 -1
77 23 236 18 127 31 232 29 234 -2 2 -25 6 -52 9 l-48 4 -41 -278z"/>
<path d="M1560 821 l0 -49 50 -4 50 -3 0 53 0 52 -50 0 -50 0 0 -49z"/>
<path d="M1550 702 c-1 -4 -9 -97 -20 -207 -10 -110 -18 -200 -17 -201 1 -1
23 -4 49 -7 l47 -6 6 42 c9 69 36 370 33 372 -9 7 -98 13 -98 7z"/>
<path d="M1761 483 l68 -208 53 -7 c29 -4 56 -4 59 0 5 5 134 316 165 397 6
14 0 16 -41 13 l-47 -3 -34 -95 c-71 -197 -87 -233 -94 -219 -4 8 -27 85 -51
172 l-43 157 -52 0 -52 0 69 -207z"/>
<path d="M2497 356 c-10 -8 -14 -16 -10 -19 5 -3 14 3 21 14 14 22 13 23 -11
5z"/>
<path d="M2436 294 c-5 -13 -3 -14 6 -7 7 6 20 13 28 16 10 4 8 6 -6 6 -12 1
-25 -6 -28 -15z"/>
</g>
</svg>
